<?xml version="1.0" standalone="no"?>
<!DOCTYPE svg PUBLIC "-//W3C//DTD SVG 20010904//EN"
 "http://www.w3.org/TR/2001/REC-SVG-20010904/DTD/svg10.dtd">
<svg version="1.0" xmlns="http://www.w3.org/2000/svg"
 width="722.000000pt" height="722.000000pt" viewBox="0 0 722.000000 722.000000"
 preserveAspectRatio="xMidYMid meet">
<metadata>
Created by potrace 1.14, written by Peter Selinger 2001-2017
</metadata>
<g transform="translate(0.000000,722.000000) scale(0.100000,-0.100000)"
fill="#000000" stroke="none">
<path d="M3398 7215 c-2 -2 -41 -6 -88 -9 -77 -5 -259 -28 -320 -41 -13 -2
-42 -7 -63 -10 -142 -22 -516 -132 -662 -195 -11 -5 -54 -23 -95 -41 -172 -73
-376 -184 -545 -296 -94 -62 -203 -140 -220 -156 -6 -7 -24 -21 -39 -32 -16
-11 -33 -24 -40 -30 -6 -5 -40 -35 -76 -65 -79 -66 -310 -296 -365 -364 -22
-27 -44 -54 -50 -60 -94 -103 -213 -275 -368 -531 -36 -59 -187 -373 -187
-388 0 -9 -4 -18 -9 -21 -5 -3 -12 -18 -16 -33 -3 -15 -16 -48 -27 -73 -12
-25 -27 -65 -34 -90 -7 -25 -25 -83 -39 -130 -39 -123 -87 -325 -101 -420 -3
-19 -7 -46 -10 -60 -2 -14 -6 -47 -9 -75 -3 -27 -8 -60 -10 -72 -26 -123 -26
-629 0 -833 8 -62 24 -171 29 -195 2 -11 7 -40 11 -65 11 -65 11 -69 28 -135
9 -33 18 -71 21 -85 2 -14 12 -50 22 -80 9 -30 17 -59 18 -65 4 -23 79 -241
86 -250 4 -5 11 -21 15 -35 4 -14 21 -53 36 -88 16 -34 29 -65 29 -68 0 -7 83
-173 127 -254 197 -362 499 -733 813 -999 102 -86 105 -88 190 -152 389 -290
804 -488 1278 -609 64 -17 131 -33 147 -35 17 -3 55 -10 85 -16 113 -21 240
-38 355 -47 174 -13 606 -6 720 13 17 2 64 9 105 15 68 9 193 32 245 43 455
104 840 269 1228 524 56 38 109 73 117 80 237 182 485 412 625 577 238 280
481 679 595 977 11 30 25 63 30 74 13 27 64 176 85 250 9 33 21 74 26 90 5 17
9 33 10 37 0 4 5 22 10 40 6 18 12 44 15 58 3 14 9 41 14 60 9 35 36 193 46
274 3 22 8 52 10 66 18 100 25 578 11 731 -25 279 -78 537 -160 789 -17 52
-32 104 -34 114 -2 11 -7 24 -11 30 -5 6 -17 34 -27 61 -92 256 -288 608 -478
860 -151 201 -382 445 -551 585 -43 36 -83 70 -90 75 -26 24 -206 154 -261
189 -33 21 -76 49 -95 61 -123 80 -386 211 -565 283 -137 54 -382 133 -458
146 -15 3 -35 7 -45 10 -34 10 -241 49 -317 60 -93 13 -143 19 -185 22 -55 5
-528 13 -532 9z"/>
</g>
</svg>
